<svg width="189" height="56" fill="none" xmlns="http://www.w3.org/2000/svg"><g clip-path="url(#a)"><path d="M175.32 0H11.96l-1.3.01C9.74.04 8.8.1 7.87.27a9.16 9.16 0 0 0-6.58 4.8 9.44 9.44 0 0 0-.87 2.66c-.17.92-.23 1.86-.24 2.8l-.03 1.29v32.36c0 .44 0 .86.03 1.3.03.93.08 1.87.25 2.8a8.88 8.88 0 0 0 2.53 4.9 8.5 8.5 0 0 0 2.27 1.66c.86.43 1.72.71 2.66.88.93.17 1.88.22 2.8.25l1.29.02H176.83c.42 0 .87 0 1.3-.02.93-.03 1.87-.08 2.8-.25.93-.17 1.8-.45 2.66-.88a9 9 0 0 0 4.79-6.57c.17-.92.23-1.86.27-2.8V10.54c-.03-.94-.09-1.87-.27-2.8a8.98 8.98 0 0 0-7.46-7.46c-.92-.17-1.86-.22-2.8-.25L176.83 0h-1.5V0Z" fill="#B0B1B0"/><path d="M11.96 54.77c-.42 0-.84 0-1.26-.02-.79-.02-1.71-.07-2.62-.22a8.25 8.25 0 0 1-2.33-.77 7.58 7.58 0 0 1-3.38-3.39 7.68 7.68 0 0 1-.76-2.32c-.17-.94-.21-1.9-.24-2.63l-.01-1.28V11.82l.01-1.25c.02-.73.06-1.7.24-2.62a7.92 7.92 0 0 1 4.14-5.71 8 8 0 0 1 2.31-.76c.94-.16 1.9-.2 2.64-.22h1.26l164.87-.01h1.28c.71.04 1.68.08 2.6.25a7.75 7.75 0 0 1 5.71 4.16c.37.71.6 1.47.76 2.3.17.89.2 1.8.24 2.65v34.85c-.03.82-.09 1.73-.24 2.59a7.6 7.6 0 0 1-2.18 4.28 7.26 7.26 0 0 1-1.97 1.43c-.72.36-1.47.62-2.33.77-.9.17-1.82.21-2.62.22l-1.26.02H11.94h.02Z" fill="#000"/><g clip-path="url(#b)"><path d="M65.54 15.38c0 1.15-.35 2.08-1.04 2.75a4.04 4.04 0 0 1-3.06 1.23 4.12 4.12 0 0 1-3.07-1.24 4.17 4.17 0 0 1-1.25-3.07c0-1.22.41-2.25 1.25-3.08a4.22 4.22 0 0 1 3.07-1.25c.61 0 1.2.11 1.74.32.54.22.98.52 1.33.9l-.76.76c-.25-.3-.59-.55-1-.71-.4-.18-.85-.26-1.31-.26a3.17 3.17 0 0 0-3.24 3.3c0 .95.3 1.74.93 2.37.63.62 1.4.94 2.31.94.83 0 1.52-.24 2.07-.69.56-.45.88-1.1.96-1.9h-3.03v-1h4.05c.04.23.05.43.05.63ZM71.95 10.9v1.02h-3.8v2.62h3.43v.99h-3.42v2.62h3.8v1.02h-4.88V10.9h4.87ZM76.47 11.92v7.25H75.4v-7.25h-2.34V10.9h5.73v1.02h-2.33.01ZM84.02 19.17h-1.07V10.9h1.07v8.27ZM88.78 11.92v7.25H87.7v-7.25h-2.34V10.9h5.73v1.02h-2.34.02ZM103.18 15.03c0 1.23-.42 2.25-1.24 3.07a4.18 4.18 0 0 1-3.06 1.24 4.17 4.17 0 0 1-3.05-1.24 4.19 4.19 0 0 1-1.24-3.07c0-1.22.42-2.24 1.24-3.07a4.14 4.14 0 0 1 3.05-1.25c1.23 0 2.23.4 3.06 1.25a4.18 4.18 0 0 1 1.24 3.06v.01Zm-7.48 0c0 .95.3 1.75.9 2.37.62.62 1.38.94 2.28.94.9 0 1.67-.32 2.27-.94.61-.62.92-1.4.92-2.37 0-.96-.3-1.75-.92-2.37a3.06 3.06 0 0 0-2.27-.93c-.9 0-1.66.31-2.28.93-.6.62-.9 1.42-.9 2.37ZM105.75 19.17h-1.07V10.9H106l4.06 6.43h.04l-.04-1.6V10.9h1.07v8.27h-1.11l-4.24-6.74h-.04l.04 1.6v5.15l-.02-.01Z" fill="#fff" stroke="#fff" stroke-width=".2" stroke-miterlimit="10"/><path d="M94.34 31.23a5.8 5.8 0 0 0-5.94 5.86 5.8 5.8 0 0 0 5.94 5.85 5.81 5.81 0 0 0 5.94-5.85 5.81 5.81 0 0 0-5.94-5.86Zm0 9.41c-1.8 0-3.34-1.46-3.34-3.55 0-2.1 1.54-3.56 3.34-3.56 1.8 0 3.33 1.45 3.33 3.56 0 2.1-1.54 3.55-3.33 3.55Zm-12.95-9.4a5.8 5.8 0 0 0-5.93 5.85 5.8 5.8 0 0 0 5.93 5.85 5.81 5.81 0 0 0 5.94-5.85 5.81 5.81 0 0 0-5.94-5.86Zm0 9.4c-1.8 0-3.33-1.46-3.33-3.55 0-2.1 1.54-3.56 3.33-3.56 1.8 0 3.34 1.45 3.34 3.56 0 2.1-1.54 3.55-3.34 3.55ZM66 33.03v2.48h6a5.2 5.2 0 0 1-1.36 3.12A6.16 6.16 0 0 1 66 40.45c-3.7 0-6.6-2.95-6.6-6.61 0-3.67 2.9-6.62 6.6-6.62 1.99 0 3.45.78 4.52 1.78l1.77-1.75a8.8 8.8 0 0 0-6.3-2.5c-5.06 0-9.32 4.07-9.32 9.1 0 5.03 4.25 9.1 9.32 9.1 2.74 0 4.8-.87 6.4-2.54 1.66-1.64 2.18-3.95 2.18-5.81 0-.58-.05-1.12-.14-1.56h-8.44v-.01Zm63 1.92c-.49-1.3-1.99-3.73-5.06-3.73-3.08 0-5.58 2.37-5.58 5.86 0 3.27 2.5 5.85 5.87 5.85a5.87 5.87 0 0 0 4.92-2.59L127.13 39a3.37 3.37 0 0 1-2.91 1.63c-1.32 0-2.27-.6-2.87-1.78l7.92-3.23-.27-.67H129Zm-8.07 1.96a3.22 3.22 0 0 1 3.09-3.42c1.03 0 1.9.51 2.2 1.24l-5.29 2.18Zm-6.42 5.68h2.6V25.36h-2.6V42.6Zm-4.25-10.06h-.09a4.1 4.1 0 0 0-3.11-1.31 5.86 5.86 0 0 0-5.68 5.88c0 3.31 2.71 5.84 5.68 5.84 1.4 0 2.53-.62 3.11-1.33h.09v.84c0 2.24-1.22 3.44-3.16 3.44a3.27 3.27 0 0 1-2.98-2.08l-2.26.94a5.64 5.64 0 0 0 5.24 3.46c3.04 0 5.62-1.78 5.62-6.1V31.57h-2.46v.95Zm-2.98 8.1c-1.8 0-3.3-1.49-3.3-3.53s1.5-3.57 3.3-3.57c1.8 0 3.16 1.52 3.16 3.57 0 2.06-1.4 3.53-3.16 3.53Zm33.9-15.27h-6.22V42.6h2.6v-6.53h3.63c2.88 0 5.7-2.07 5.7-5.35s-2.82-5.35-5.7-5.35h-.01Zm.07 8.31h-3.69v-5.9h3.69a3 3 0 0 1 3.04 2.94 3 3 0 0 1-3.04 2.95v.01Zm16.03-2.48c-1.88 0-3.82.83-4.63 2.63l2.3.95c.5-.95 1.41-1.26 2.37-1.26 1.34 0 2.71.8 2.73 2.22v.17a5.85 5.85 0 0 0-2.72-.66c-2.48 0-5 1.35-5 3.87 0 2.3 2.03 3.8 4.31 3.8 1.74 0 2.71-.78 3.3-1.69h.1v1.33h2.5v-6.6c0-3.06-2.31-4.77-5.29-4.77l.03.01Zm-.32 9.44c-.85 0-2.03-.43-2.03-1.46 0-1.32 1.47-1.83 2.75-1.83 1.14 0 1.69.25 2.37.58a3.13 3.13 0 0 1-3.09 2.72v-.01Zm14.71-9.07-2.97 7.47h-.09l-3.09-7.47h-2.79l4.63 10.45-2.64 5.8h2.71l7.13-16.25h-2.88ZM148.3 42.6h2.6V25.36h-2.6V42.6Z" fill="#fff"/><path d="M28.4 28.02 13.6 43.6a4 4 0 0 0 5.9 2.39l.05-.03 16.65-9.52L28.4 28v.01Z" fill="#EA4335"/><path d="M43.4 25.36h-.02l-7.2-4.14-8.1 7.15 8.14 8.06 7.16-4.1a3.96 3.96 0 0 0 2.1-3.48c0-1.5-.84-2.81-2.09-3.47v-.02Z" fill="#FBBC04"/><path d="M13.6 14.04a4.1 4.1 0 0 0-.13 1.02v27.51c0 .36.04.7.14 1.02l15.3-15.17-15.3-14.38Z" fill="#4285F4"/><path d="m28.51 28.82 7.66-7.59-16.64-9.56a4.02 4.02 0 0 0-5.92 2.37l14.9 14.78Z" fill="#34A853"/></g></g><defs><clipPath id="a"><path fill="#fff" transform="translate(.14)" d="M0 0h188.52v56H0z"/></clipPath><clipPath id="b"><path fill="#fff" transform="translate(13.47 10.58)" d="M0 0h161.09v37.63H0z"/></clipPath></defs></svg>