<svg width="189" height="56" fill="none" xmlns="http://www.w3.org/2000/svg"><g clip-path="url(#a)"><path d="M175.18 0H11.82l-1.3.01C9.6.04 8.66.1 7.73.27a9.16 9.16 0 0 0-6.58 4.8 9.44 9.44 0 0 0-.87 2.66c-.17.92-.23 1.86-.24 2.8L0 11.82v32.36c0 .44 0 .86.03 1.3.03.93.08 1.87.25 2.8a8.88 8.88 0 0 0 2.53 4.9 8.5 8.5 0 0 0 2.27 1.66c.86.43 1.72.71 2.66.88.93.17 1.88.22 2.8.25l1.29.02H176.69c.42 0 .87 0 1.3-.02.93-.03 1.87-.08 2.8-.25.93-.17 1.8-.45 2.67-.88a9 9 0 0 0 4.79-6.57c.16-.92.22-1.86.26-2.8V10.54c-.03-.94-.08-1.87-.27-2.8a8.98 8.98 0 0 0-7.46-7.46c-.92-.17-1.86-.22-2.8-.25L176.7 0h-1.5V0Z" fill="#B0B1B0"/><path d="M11.82 54.77c-.42 0-.84 0-1.26-.02-.79-.02-1.71-.07-2.62-.22a8.25 8.25 0 0 1-2.33-.77 7.58 7.58 0 0 1-3.38-3.39 7.68 7.68 0 0 1-.76-2.32c-.17-.94-.21-1.9-.24-2.63l-.01-1.28V11.82l.01-1.25c.02-.73.06-1.7.24-2.62a7.92 7.92 0 0 1 4.14-5.71 8 8 0 0 1 2.31-.76c.94-.16 1.9-.2 2.64-.22h1.26l164.87-.01h1.28c.71.04 1.68.08 2.6.25a7.75 7.75 0 0 1 5.71 4.16c.37.71.6 1.47.76 2.3.17.89.21 1.8.24 2.65v34.85c-.03.82-.09 1.73-.24 2.59a7.6 7.6 0 0 1-2.18 4.28 7.26 7.26 0 0 1-1.96 1.43c-.73.36-1.47.62-2.34.77-.9.17-1.82.21-2.62.22l-1.26.02H11.8h.02Z" fill="#000"/><path d="M45.2 28.42c-.04-3.85 3.15-5.73 3.3-5.81a7.1 7.1 0 0 0-5.58-3.02c-2.35-.26-4.64 1.4-5.83 1.4-1.19 0-3.06-1.39-5.05-1.35a7.43 7.43 0 0 0-6.26 3.82c-2.7 4.7-.68 11.58 1.9 15.38 1.3 1.86 2.82 3.93 4.8 3.85 1.95-.09 2.68-1.24 5.02-1.24 2.34 0 3 1.24 5.03 1.2 2.08-.03 3.4-1.87 4.64-3.74 1.5-2.13 2.1-4.23 2.13-4.33a6.7 6.7 0 0 1-4.09-6.16ZM41.38 17.1a6.73 6.73 0 0 0 1.55-4.9 7 7 0 0 0-4.5 2.33 6.45 6.45 0 0 0-1.59 4.7c1.7.13 3.45-.85 4.54-2.14ZM69.74 38h-6.62l-1.6 4.7h-2.8L65 25.31h2.9l6.28 17.39h-2.86l-1.6-4.7h.02Zm-5.93-2.17h5.25l-2.6-7.63h-.06l-2.6 7.63ZM87.75 36.36c0 3.93-2.12 6.47-5.3 6.47-1.8 0-3.23-.82-3.99-2.22h-.05v6.28h-2.6V30.02h2.51v2.11h.05a4.5 4.5 0 0 1 4.03-2.24c3.22 0 5.33 2.55 5.33 6.47h.02Zm-2.68 0c0-2.56-1.33-4.26-3.34-4.26-2.02 0-3.34 1.72-3.34 4.26 0 2.53 1.35 4.27 3.34 4.27 1.98 0 3.34-1.68 3.34-4.27ZM101.7 36.36c0 3.93-2.12 6.47-5.3 6.47-1.8 0-3.24-.82-4-2.22h-.05v6.28h-2.6V30.02h2.52v2.11h.04a4.5 4.5 0 0 1 4.03-2.24c3.22 0 5.34 2.55 5.34 6.47h.01Zm-2.68 0c0-2.56-1.33-4.26-3.35-4.26s-3.33 1.72-3.33 4.26c0 2.53 1.34 4.27 3.33 4.27s3.35-1.68 3.35-4.27ZM110.92 37.86c.2 1.72 1.86 2.85 4.16 2.85s3.76-1.13 3.76-2.69c0-1.34-.95-2.15-3.2-2.71l-2.26-.55c-3.2-.77-4.67-2.27-4.67-4.69 0-3 2.61-5.05 6.32-5.05 3.71 0 6.2 2.06 6.28 5.05h-2.64c-.15-1.73-1.6-2.78-3.68-2.78s-3.53 1.06-3.53 2.6c0 1.23.91 1.95 3.15 2.5l1.92.48c3.57.84 5.05 2.28 5.05 4.82 0 3.25-2.58 5.29-6.7 5.29-3.85 0-6.45-1.99-6.62-5.14h2.66v.02ZM127.21 27.02v3h2.41v2.05h-2.4v6.99c0 1.1.47 1.6 1.53 1.6.27 0 .69-.05.86-.06v2.04c-.3.07-.87.13-1.45.13-2.56 0-3.56-.97-3.56-3.42V32.1h-1.85v-2.06h1.84v-3h2.62v-.01ZM131 36.36c0-4 2.36-6.5 6.01-6.5 3.66 0 6 2.5 6 6.5 0 3.99-2.32 6.5-6 6.5s-6-2.5-6-6.5Zm9.39 0c0-2.73-1.26-4.36-3.36-4.36-2.1 0-3.36 1.63-3.36 4.36 0 2.73 1.24 4.35 3.36 4.35 2.11 0 3.36-1.6 3.36-4.35ZM145.19 30.02h2.48v2.15h.05a3.03 3.03 0 0 1 3.05-2.3c.38 0 .69.06.9.1v2.44a3.66 3.66 0 0 0-1.16-.15c-1.68 0-2.72 1.13-2.72 2.9v7.53h-2.6V30.02ZM163.65 38.98c-.35 2.3-2.59 3.87-5.46 3.87-3.68 0-5.97-2.46-5.97-6.44 0-3.97 2.3-6.55 5.86-6.55 3.57 0 5.71 2.41 5.71 6.26v.9h-8.94v.15c0 2.17 1.36 3.58 3.41 3.58 1.45 0 2.58-.68 2.93-1.77h2.46Zm-8.79-3.78h6.34c-.05-1.95-1.3-3.22-3.1-3.22-1.81 0-3.1 1.3-3.24 3.22ZM63.48 12.22c2.48 0 3.94 1.53 3.94 4.15 0 2.61-1.44 4.2-3.94 4.2h-3.02V12.2h3.02v.01Zm-1.72 7.17h1.57c1.75 0 2.76-1.1 2.76-3.01 0-1.92-1.02-2.98-2.76-2.98h-1.57v5.99ZM68.87 17.42c0-2.03 1.14-3.28 2.97-3.28 1.84 0 2.97 1.23 2.97 3.28 0 2.04-1.13 3.27-2.97 3.27-1.83 0-2.97-1.23-2.97-3.27Zm4.67 0c0-1.38-.62-2.17-1.7-2.17s-1.7.8-1.7 2.17c0 1.37.61 2.17 1.7 2.17 1.1 0 1.7-.8 1.7-2.17ZM82.72 20.58h-1.29l-1.3-4.65h-.1l-1.3 4.65h-1.27l-1.74-6.3h1.26l1.13 4.82h.1l1.3-4.82h1.2L82 19.1h.1l1.11-4.82h1.25l-1.74 6.3ZM85.91 14.27h1.2v1h.1c.31-.7.94-1.12 1.88-1.12 1.4 0 2.18.84 2.18 2.34v4.09h-1.24v-3.77c0-1-.44-1.5-1.36-1.5-.92 0-1.51.6-1.51 1.59v3.68H85.9v-6.31ZM93.25 11.82h1.24v8.76h-1.24v-8.76ZM96.23 17.42c0-2.03 1.13-3.28 2.97-3.28 1.83 0 2.97 1.23 2.97 3.28 0 2.04-1.14 3.27-2.97 3.27-1.84 0-2.97-1.23-2.97-3.27Zm4.66 0c0-1.38-.61-2.17-1.7-2.17-1.07 0-1.69.8-1.69 2.17 0 1.37.6 2.17 1.7 2.17 1.09 0 1.7-.8 1.7-2.17ZM103.48 18.79c0-1.14.84-1.8 2.34-1.88l1.7-.1v-.54c0-.67-.42-1.04-1.28-1.04-.7 0-1.17.25-1.31.7h-1.2c.12-1.08 1.14-1.78 2.57-1.78 1.58 0 2.48.79 2.48 2.12v4.31h-1.2v-.88h-.1c-.39.63-1.07 1-1.9 1-1.22 0-2.1-.74-2.1-1.9v-.01Zm4.05-.53v-.54l-1.54.1c-.87.06-1.26.35-1.26.91s.49.9 1.16.9c.94 0 1.64-.6 1.64-1.37ZM110.41 17.42c0-2 1.03-3.25 2.62-3.25.87 0 1.6.4 1.93 1.1h.1v-3.45h1.25v8.76h-1.2v-1h-.1a2.2 2.2 0 0 1-1.97 1.11c-1.6 0-2.61-1.26-2.61-3.26l-.02-.01Zm1.3 0c0 1.34.62 2.14 1.67 2.14 1.05 0 1.7-.81 1.7-2.14s-.66-2.15-1.7-2.15c-1.03 0-1.68.82-1.68 2.15ZM121.44 17.42c0-2.03 1.14-3.28 2.97-3.28 1.84 0 2.97 1.23 2.97 3.28 0 2.04-1.13 3.27-2.97 3.27-1.83 0-2.97-1.23-2.97-3.27Zm4.67 0c0-1.38-.62-2.17-1.7-2.17s-1.7.8-1.7 2.17c0 1.37.61 2.17 1.7 2.17 1.1 0 1.7-.8 1.7-2.17ZM129.06 14.27h1.2v1h.1c.31-.7.94-1.12 1.88-1.12 1.4 0 2.18.84 2.18 2.34v4.09h-1.24v-3.77c0-1-.44-1.5-1.36-1.5-.92 0-1.51.6-1.51 1.59v3.68h-1.25v-6.31ZM141.45 12.7v1.6h1.37v1.04h-1.37v3.25c0 .66.27.95.9.95.2 0 .3 0 .47-.02v1.03c-.2.03-.43.07-.67.07-1.39 0-1.93-.49-1.93-1.7v-3.56h-1V14.3h1v-1.6h1.25l-.02-.01ZM144.5 11.82h1.23v3.47h.1c.31-.7.97-1.14 1.92-1.14 1.34 0 2.17.86 2.17 2.36v4.07h-1.25v-3.77c0-1-.46-1.5-1.34-1.5-1.02 0-1.58.64-1.58 1.59v3.68h-1.25v-8.76ZM157.19 18.87c-.28 1.14-1.3 1.82-2.73 1.82-1.81 0-2.92-1.23-2.92-3.25 0-2.01 1.14-3.29 2.92-3.29 1.77 0 2.81 1.2 2.81 3.18v.44h-4.45v.07c.04 1.1.68 1.8 1.68 1.8.75 0 1.27-.26 1.5-.77h1.2-.01Zm-4.39-2.03h3.18c-.03-1-.63-1.64-1.55-1.64-.93 0-1.57.65-1.64 1.64h.01Z" fill="#fff"/></g><defs><clipPath id="a"><path fill="#fff" d="M0 0h188.52v56H0z"/></clipPath></defs></svg>