<?xml version="1.0" encoding="utf-8"?>
<!-- Generator: Adobe Illustrator 26.0.2, SVG Export Plug-In . SVG Version: 6.00 Build 0)  -->
<svg version="1.1" id="Layer_1" xmlns="http://www.w3.org/2000/svg" xmlns:xlink="http://www.w3.org/1999/xlink" x="0px" y="0px"
	 viewBox="0 0 74.78 109.17" style="enable-background:new 0 0 74.78 109.17;" xml:space="preserve">
<style type="text/css">
	.st0{fill:#FFFFFF;}
</style>
<g>
	<path class="st0" d="M69.34,44.6c1.96,1.87,3.24,3.64,3.85,5.32c0.61,1.68,0.91,3.31,0.91,4.9c0,1.59-0.3,3.17-0.91,4.76
		c-0.61,1.59-1.89,3.31-3.85,5.18l-43.96,39.76c-3.08,2.8-6.35,4.13-9.8,3.99c-3.45-0.14-6.53-1.56-9.24-4.27
		c-1.31-1.31-2.33-2.8-3.08-4.48C2.51,98.08,2.09,96.35,2,94.58c-0.09-1.77,0.19-3.48,0.84-5.11c0.65-1.63,1.77-3.1,3.36-4.41
		l35.7-30.38L6.2,24.3c-1.59-1.31-2.71-2.78-3.36-4.41C2.19,18.26,1.91,16.55,2,14.78c0.09-1.77,0.51-3.5,1.26-5.18
		c0.75-1.68,1.77-3.17,3.08-4.48c2.71-2.71,5.79-4.13,9.24-4.27c3.45-0.14,6.72,1.19,9.8,3.99L69.34,44.6z"/>
</g>
</svg>
