<svg xmlns="http://www.w3.org/2000/svg" viewBox="0 0 1565.04 63.75"><defs><style>.cls-1{fill:#020c0b;}</style></defs><g id="Layer_2" data-name="Layer 2"><g id="visual"><path class="cls-1" d="M1543.54,25c-21.5-1.41-64.5-3.91-107.3-10.47S1350.74-2.34,1307.84.48s-85.8,19.06-128.6,27-85.5,8.12-128.4,5.46c-42.8-2.5-85.8-7.81-128.6-11.71s-85.5-6.41-128.4-6.25c-3.77,0-7.55.07-11.32.14S775,15,771.2,15c-42.9-.16-85.5,2.34-128.4,6.25S557,30.47,514.2,33c-42.9,2.66-85.5,2.66-128.4-5.46S300,3.29,257.2.48,171.7,8,128.8,14.54,43,23.6,21.5,25L0,26.26V63.75H1565V26.26Z"/></g></g></svg>